# xmcd CD database file
#
# Track frame offsets:
#	150
#	20787
#	45637
#	70707
#	96267
#	117835
#	137720
#	163765
#	181480
#	207575
#	228070
#
# Disc length: 3388 seconds
#
# Revision: 5
# Processed by: cddbd v1.5.1PL0 Copyright (c) Steve Scherf et al.
# Submitted via: CDex 1.51
#
DISCID=980d3a0b
DTITLE=Eden ATWOOD - Cat on a Hot Tin Roof
DYEAR=1994
DGENRE=Vocal
TTITLE0=For Every Man, There's A Woman
TTITLE1=Twilight World
TTITLE2=Silent Movie
TTITLE3=Cat on a Hot Tin Roof
TTITLE4=You've Changed
TTITLE5=My Ship
TTITLE6=Ev'ry Time We Say Goodbye
TTITLE7=Right as the Rain
TTITLE8=I'm Glad There Is You
TTITLE9=Never Let Me Go
TTITLE10=Not While I'm Around
EXTD=YEAR: 1994
EXTT0=
EXTT1=
EXTT2=
EXTT3=
EXTT4=
EXTT5=
EXTT6=
EXTT7=
EXTT8=
EXTT9=
EXTT10=
PLAYORDER=
